<svg xmlns="http://www.w3.org/2000/svg" viewBox="0 0 100 100" width="100" height="100">
  <defs>
    <!-- Blue gradient for M bars -->
    <linearGradient id="blueBarGradient" x1="0%" y1="0%" x2="100%" y2="100%">
      <stop offset="0%" stop-color="#00B4DB"/>
      <stop offset="50%" stop-color="#0083B0"/>
      <stop offset="100%" stop-color="#005F8B"/>
    </linearGradient>
    
    <!-- Green gradient for arrow -->
    <linearGradient id="greenArrowGradient" x1="0%" y1="100%" x2="100%" y2="0%">
      <stop offset="0%" stop-color="#00B85F"/>
      <stop offset="50%" stop-color="#4ADE80"/>
      <stop offset="100%" stop-color="#86EFAC"/>
    </linearGradient>
    
    <!-- Blue swoosh gradient -->
    <linearGradient id="blueSwooshGradient" x1="100%" y1="0%" x2="0%" y2="100%">
      <stop offset="0%" stop-color="#00B4DB"/>
      <stop offset="100%" stop-color="#0077B6"/>
    </linearGradient>
    
    <!-- Green swoosh gradient -->
    <linearGradient id="greenSwooshGradient" x1="0%" y1="0%" x2="100%" y2="100%">
      <stop offset="0%" stop-color="#4ADE80"/>
      <stop offset="50%" stop-color="#22C55E"/>
      <stop offset="100%" stop-color="#16A34A"/>
    </linearGradient>
    
    <!-- Outer swoosh gradient -->
    <linearGradient id="outerSwooshGradient" x1="0%" y1="100%" x2="100%" y2="0%">
      <stop offset="0%" stop-color="#16A34A"/>
      <stop offset="50%" stop-color="#22C55E"/>
      <stop offset="100%" stop-color="#4ADE80"/>
    </linearGradient>
  </defs>
  
  <!-- Outer green swoosh (bottom right) -->
  <path d="M75 85 C45 95 15 80 12 55 L18 52 C20 72 45 85 72 78 Z" fill="url(#outerSwooshGradient)"/>
  
  <!-- Inner blue swoosh (top left) -->
  <path d="M25 15 C55 5 85 20 88 45 L82 48 C80 28 55 15 28 22 Z" fill="url(#blueSwooshGradient)"/>
  
  <!-- M shape with bar chart -->
  <g transform="translate(22, 28)">
    <!-- Left bar -->
    <rect x="0" y="18" width="11" height="30" rx="2" fill="url(#blueBarGradient)"/>
    
    <!-- Center-left bar (shorter) -->
    <rect x="15" y="28" width="9" height="20" rx="2" fill="url(#blueBarGradient)"/>
    
    <!-- Center bar (tallest) -->
    <rect x="28" y="8" width="9" height="40" rx="2" fill="url(#blueBarGradient)"/>
    
    <!-- Center-right bar (medium) -->
    <rect x="41" y="20" width="9" height="28" rx="2" fill="url(#blueBarGradient)"/>
    
    <!-- Right bar -->
    <rect x="54" y="18" width="11" height="30" rx="2" fill="url(#blueBarGradient)"/>
  </g>
  
  <!-- Upward arrow -->
  <path d="M72 32 L80 18 L88 32 L82 32 L82 42 L78 42 L78 32 Z" fill="url(#greenArrowGradient)"/>
  
  <!-- Bottom green swoosh accent -->
  <path d="M18 70 C35 78 55 75 70 65 L68 60 C55 68 38 70 22 65 Z" fill="url(#greenSwooshGradient)"/>
</svg>